<svg width="130" height="40" viewBox="0 0 130 40" fill="none" xmlns="http://www.w3.org/2000/svg">
<path d="M40.8317 8.48181C40.4326 26.2196 32.8262 33.0626 21.721 39.6447C21.3264 39.8773 20.8768 40 20.4187 40C19.9607 40 19.511 39.8773 19.1164 39.6447C7.97933 33.0439 0.362207 26.1771 0.000373218 8.35145C-0.00674163 7.93549 0.0879655 7.52411 0.276236 7.15313C0.464506 6.78216 0.740627 6.46284 1.08055 6.22301C6.822 2.21624 13.4255 0 20.4174 0C27.4093 0 33.188 2.46899 39.5733 6.25494C39.9607 6.48231 40.2811 6.80803 40.5021 7.19909C40.7231 7.59014 40.8368 8.03266 40.8317 8.48181V8.48181Z" fill="url(#paint0_linear_129_119)"/>
<path opacity="0.16" d="M15.8145 23.631L27.8082 35.6673C33.2117 31.6765 37.2717 26.9354 39.3336 19.5604L29.5854 9.85205L15.8145 23.631Z" fill="url(#paint1_linear_129_119)"/>
<path d="M18.9403 26.7598L10.791 18.6079L13.9225 15.4791L18.9403 20.4969L29.5851 9.85205L32.7166 12.9835L18.9403 26.7598Z" fill="white"/>
<path d="M53.2909 24.5315L56.8278 14.7772H60.8898L55.087 29.2566H51.4395L45.6367 14.7772H49.7816L53.2909 24.5315Z" fill="url(#paint2_linear_129_119)"/>
<path d="M74.4333 27.4052C73.0333 28.8605 71.2004 29.5882 68.9345 29.5882C66.6686 29.5882 64.8357 28.8605 63.4357 27.4052C62.0356 25.9315 61.3356 24.1354 61.3356 22.0169C61.3356 19.8984 62.0356 18.1115 63.4357 16.6562C64.8357 15.1825 66.6686 14.4456 68.9345 14.4456C71.2004 14.4456 73.0333 15.1825 74.4333 16.6562C75.8334 18.1115 76.5334 19.8984 76.5334 22.0169C76.5334 24.1354 75.8334 25.9315 74.4333 27.4052ZM66.2818 19.005C65.6002 19.7419 65.2594 20.7458 65.2594 22.0169C65.2594 23.288 65.6002 24.292 66.2818 25.0289C66.9818 25.7657 67.866 26.1342 68.9345 26.1342C70.003 26.1342 70.878 25.7657 71.5596 25.0289C72.2596 24.292 72.6096 23.288 72.6096 22.0169C72.6096 20.7458 72.2596 19.7419 71.5596 19.005C70.878 18.2681 70.003 17.8997 68.9345 17.8997C67.866 17.8997 66.9818 18.2681 66.2818 19.005Z" fill="url(#paint3_linear_129_119)"/>
<path d="M82.896 12.2351C82.4539 12.6772 81.8828 12.8982 81.1828 12.8982C80.4828 12.8982 79.9117 12.6772 79.4696 12.2351C79.0274 11.7929 78.8064 11.2311 78.8064 10.5495C78.8064 9.86788 79.0274 9.30602 79.4696 8.8639C79.9117 8.40337 80.4828 8.1731 81.1828 8.1731C81.8828 8.1731 82.4539 8.40337 82.896 8.8639C83.3381 9.30602 83.5592 9.86788 83.5592 10.5495C83.5592 11.2311 83.3381 11.7929 82.896 12.2351ZM79.2209 29.2566V14.7772H83.1447V29.2566H79.2209Z" fill="url(#paint4_linear_129_119)"/>
<path d="M87.8826 27.4329C86.5194 25.9776 85.8378 24.1723 85.8378 22.0169C85.8378 19.8616 86.5194 18.0655 87.8826 16.6286C89.2642 15.1733 91.005 14.4456 93.1051 14.4456C95.1683 14.4456 96.7894 15.0259 97.9684 16.1865C99.1658 17.3471 99.8474 18.6458 100.013 20.0827H95.9788C95.8315 19.4563 95.4907 18.9405 94.9564 18.5352C94.4222 18.13 93.7959 17.9273 93.0774 17.9273C92.0458 17.9273 91.2353 18.305 90.6458 19.0603C90.0563 19.7971 89.7616 20.7827 89.7616 22.0169C89.7616 23.2512 90.0563 24.2459 90.6458 25.0012C91.2353 25.7381 92.0458 26.1065 93.0774 26.1065C93.7959 26.1065 94.4222 25.9039 94.9564 25.4986C95.4907 25.0933 95.8315 24.5775 95.9788 23.9512H100.013C99.8474 25.3881 99.1658 26.6868 97.9684 27.8474C96.7894 29.0079 95.1683 29.5882 93.1051 29.5882C91.005 29.5882 89.2642 28.8698 87.8826 27.4329Z" fill="url(#paint5_linear_129_119)"/>
<path d="M115.67 23.1499H105.169C105.298 24.1446 105.667 24.9091 106.275 25.4433C106.882 25.9591 107.684 26.217 108.679 26.217C109.305 26.217 109.867 26.0881 110.364 25.8302C110.88 25.5539 111.248 25.1578 111.469 24.642H115.421C114.997 26.1157 114.159 27.3131 112.906 28.2342C111.672 29.1369 110.226 29.5882 108.568 29.5882C106.431 29.5882 104.681 28.879 103.318 27.4605C101.955 26.042 101.273 24.2183 101.273 21.9893C101.273 19.834 101.955 18.0379 103.318 16.601C104.681 15.1641 106.422 14.4456 108.54 14.4456C110.659 14.4456 112.381 15.1641 113.708 16.601C115.052 18.0194 115.725 19.8155 115.725 21.9893L115.67 23.1499ZM108.513 17.5957C107.628 17.5957 106.901 17.8444 106.33 18.3418C105.759 18.8208 105.39 19.484 105.224 20.3313H111.801C111.654 19.5024 111.294 18.8392 110.723 18.3418C110.152 17.8444 109.415 17.5957 108.513 17.5957Z" fill="url(#paint6_linear_129_119)"/>
<path d="M123.515 29.5882C119.573 29.5882 117.482 27.9118 117.243 24.5591H121.222C121.259 25.0933 121.471 25.5447 121.857 25.9131C122.263 26.2631 122.852 26.4381 123.626 26.4381C124.363 26.4381 124.925 26.3184 125.311 26.0789C125.698 25.8394 125.892 25.517 125.892 25.1118C125.892 24.6696 125.615 24.3473 125.063 24.1446C124.51 23.9236 123.838 23.7486 123.046 23.6196C122.272 23.4907 121.489 23.3156 120.697 23.0946C119.905 22.8735 119.232 22.4406 118.68 21.7959C118.127 21.1511 117.851 20.2945 117.851 19.2261C117.851 17.8813 118.385 16.7483 119.453 15.8273C120.522 14.9062 121.922 14.4456 123.654 14.4456C125.625 14.4456 127.089 14.943 128.047 15.9378C129.005 16.9326 129.521 18.0655 129.595 19.3366H125.809C125.772 18.8392 125.56 18.4247 125.173 18.0931C124.805 17.7615 124.289 17.5957 123.626 17.5957C123 17.5957 122.511 17.7339 122.161 18.0102C121.811 18.2681 121.636 18.5997 121.636 19.005C121.636 19.4471 121.913 19.7695 122.465 19.9721C123.018 20.1748 123.681 20.3406 124.455 20.4695C125.247 20.58 126.03 20.7458 126.804 20.9669C127.596 21.188 128.268 21.6301 128.821 22.2933C129.373 22.9564 129.65 23.8407 129.65 24.946C129.65 26.2907 129.097 27.4052 127.992 28.2895C126.905 29.1553 125.413 29.5882 123.515 29.5882Z" fill="url(#paint7_linear_129_119)"/>
<defs>
<linearGradient id="paint0_linear_129_119" x1="3.86627" y1="3.7875" x2="36.2844" y2="36.8798" gradientUnits="userSpaceOnUse">
<stop stop-color="#FF5722"/>
<stop offset="0.11" stop-color="#FF4A23"/>
<stop offset="0.19" stop-color="#FF3E24"/>
<stop offset="0.27" stop-color="#FE3B2A"/>
<stop offset="0.38" stop-color="#FC333A"/>
<stop offset="0.5" stop-color="#F92454"/>
<stop offset="0.62" stop-color="#F41179"/>
<stop offset="1" stop-color="#FF5F89"/>
</linearGradient>
<linearGradient id="paint1_linear_129_119" x1="33.9674" y1="28.0083" x2="17.3377" y2="11.3767" gradientUnits="userSpaceOnUse">
<stop stop-color="#FF0062"/>
<stop offset="0.546875"/>
</linearGradient>
<linearGradient id="paint2_linear_129_119" x1="53.5917" y1="10.2008" x2="61.9018" y2="42.8018" gradientUnits="userSpaceOnUse">
<stop stop-color="#FF5722"/>
<stop offset="0.11" stop-color="#FF4A23"/>
<stop offset="0.19" stop-color="#FF3E24"/>
<stop offset="0.27" stop-color="#FE3B2A"/>
<stop offset="0.38" stop-color="#FC333A"/>
<stop offset="0.5" stop-color="#F92454"/>
<stop offset="0.62" stop-color="#F41179"/>
<stop offset="1" stop-color="#FF5F89"/>
</linearGradient>
<linearGradient id="paint3_linear_129_119" x1="53.5917" y1="10.2008" x2="61.9018" y2="42.8018" gradientUnits="userSpaceOnUse">
<stop stop-color="#FF5722"/>
<stop offset="0.11" stop-color="#FF4A23"/>
<stop offset="0.19" stop-color="#FF3E24"/>
<stop offset="0.27" stop-color="#FE3B2A"/>
<stop offset="0.38" stop-color="#FC333A"/>
<stop offset="0.5" stop-color="#F92454"/>
<stop offset="0.62" stop-color="#F41179"/>
<stop offset="1" stop-color="#FF5F89"/>
</linearGradient>
<linearGradient id="paint4_linear_129_119" x1="53.5917" y1="10.2008" x2="61.9018" y2="42.8018" gradientUnits="userSpaceOnUse">
<stop stop-color="#FF5722"/>
<stop offset="0.11" stop-color="#FF4A23"/>
<stop offset="0.19" stop-color="#FF3E24"/>
<stop offset="0.27" stop-color="#FE3B2A"/>
<stop offset="0.38" stop-color="#FC333A"/>
<stop offset="0.5" stop-color="#F92454"/>
<stop offset="0.62" stop-color="#F41179"/>
<stop offset="1" stop-color="#FF5F89"/>
</linearGradient>
<linearGradient id="paint5_linear_129_119" x1="53.5917" y1="10.2008" x2="61.9018" y2="42.8018" gradientUnits="userSpaceOnUse">
<stop stop-color="#FF5722"/>
<stop offset="0.11" stop-color="#FF4A23"/>
<stop offset="0.19" stop-color="#FF3E24"/>
<stop offset="0.27" stop-color="#FE3B2A"/>
<stop offset="0.38" stop-color="#FC333A"/>
<stop offset="0.5" stop-color="#F92454"/>
<stop offset="0.62" stop-color="#F41179"/>
<stop offset="1" stop-color="#FF5F89"/>
</linearGradient>
<linearGradient id="paint6_linear_129_119" x1="53.5917" y1="10.2008" x2="61.9018" y2="42.8018" gradientUnits="userSpaceOnUse">
<stop stop-color="#FF5722"/>
<stop offset="0.11" stop-color="#FF4A23"/>
<stop offset="0.19" stop-color="#FF3E24"/>
<stop offset="0.27" stop-color="#FE3B2A"/>
<stop offset="0.38" stop-color="#FC333A"/>
<stop offset="0.5" stop-color="#F92454"/>
<stop offset="0.62" stop-color="#F41179"/>
<stop offset="1" stop-color="#FF5F89"/>
</linearGradient>
<linearGradient id="paint7_linear_129_119" x1="53.5917" y1="10.2008" x2="61.9018" y2="42.8018" gradientUnits="userSpaceOnUse">
<stop stop-color="#FF5722"/>
<stop offset="0.11" stop-color="#FF4A23"/>
<stop offset="0.19" stop-color="#FF3E24"/>
<stop offset="0.27" stop-color="#FE3B2A"/>
<stop offset="0.38" stop-color="#FC333A"/>
<stop offset="0.5" stop-color="#F92454"/>
<stop offset="0.62" stop-color="#F41179"/>
<stop offset="1" stop-color="#FF5F89"/>
</linearGradient>
</defs>
</svg>
