<svg width="148" height="32" viewBox="0 0 148 32" fill="none" xmlns="http://www.w3.org/2000/svg">
<path d="M32.6654 6.78545C32.3461 20.9757 26.2609 26.4501 17.3768 31.7158C17.0612 31.9019 16.7014 32 16.335 32C15.9685 32 15.6088 31.9019 15.2931 31.7158C6.38347 26.4352 0.289766 20.9417 0.000298574 6.68116C-0.0053933 6.34839 0.0703724 6.01929 0.220988 5.7225C0.371605 5.42572 0.592502 5.17028 0.864442 4.97841C5.4576 1.77299 10.7404 0 16.3339 0C21.9274 0 26.5504 1.97519 31.6586 5.00395C31.9685 5.18585 32.2249 5.44642 32.4017 5.75927C32.5784 6.07212 32.6694 6.42613 32.6654 6.78545V6.78545Z" fill="url(#paint0_linear_129_96)"/>
<path opacity="0.16" d="M12.6514 18.9047L22.2464 28.5338C26.5692 25.3411 29.8172 21.5483 31.4667 15.6482L23.6681 7.88159L12.6514 18.9047Z" fill="url(#paint1_linear_129_96)"/>
<path d="M15.1522 21.4078L8.63281 14.8863L11.138 12.3832L15.1522 16.3975L23.6681 7.88159L26.1732 10.3868L15.1522 21.4078Z" fill="white"/>
<path d="M42.6331 19.625L45.4627 11.8216H48.7122L44.07 23.4051H41.152L36.5098 11.8216H39.8257L42.6331 19.625Z" fill="url(#paint2_linear_129_96)"/>
<path d="M59.5471 21.924C58.427 23.0883 56.9607 23.6704 55.148 23.6704C53.3353 23.6704 51.8689 23.0883 50.7489 21.924C49.6289 20.7451 49.0689 19.3082 49.0689 17.6134C49.0689 15.9186 49.6289 14.4891 50.7489 13.3248C51.8689 12.1459 53.3353 11.5564 55.148 11.5564C56.9607 11.5564 58.427 12.1459 59.5471 13.3248C60.6671 14.4891 61.2271 15.9186 61.2271 17.6134C61.2271 19.3082 60.6671 20.7451 59.5471 21.924ZM53.0258 15.2038C52.4805 15.7933 52.2079 16.5965 52.2079 17.6134C52.2079 18.6303 52.4805 19.4334 53.0258 20.0229C53.5858 20.6124 54.2932 20.9072 55.148 20.9072C56.0028 20.9072 56.7028 20.6124 57.2481 20.0229C57.8081 19.4334 58.0881 18.6303 58.0881 17.6134C58.0881 16.5965 57.8081 15.7933 57.2481 15.2038C56.7028 14.6144 56.0028 14.3196 55.148 14.3196C54.2932 14.3196 53.5858 14.6144 53.0258 15.2038Z" fill="url(#paint3_linear_129_96)"/>
<path d="M66.3172 9.7879C65.9635 10.1416 65.5066 10.3184 64.9466 10.3184C64.3866 10.3184 63.9297 10.1416 63.576 9.7879C63.2223 9.4342 63.0455 8.98472 63.0455 8.43944C63.0455 7.89416 63.2223 7.44467 63.576 7.09098C63.9297 6.72255 64.3866 6.53833 64.9466 6.53833C65.5066 6.53833 65.9635 6.72255 66.3172 7.09098C66.6709 7.44467 66.8477 7.89416 66.8477 8.43944C66.8477 8.98472 66.6709 9.4342 66.3172 9.7879ZM63.3771 23.4051V11.8216H66.5161V23.4051H63.3771Z" fill="url(#paint4_linear_129_96)"/>
<path d="M70.3064 21.9462C69.2159 20.7819 68.6706 19.3377 68.6706 17.6134C68.6706 15.8891 69.2159 14.4522 70.3064 13.3027C71.4117 12.1385 72.8044 11.5564 74.4844 11.5564C76.135 11.5564 77.4319 12.0206 78.3751 12.949C79.333 13.8775 79.8783 14.9165 80.0109 16.066H76.7835C76.6656 15.5649 76.3929 15.1523 75.9655 14.828C75.5382 14.5038 75.0371 14.3417 74.4623 14.3417C73.6371 14.3417 72.9886 14.6438 72.517 15.2481C72.0454 15.8376 71.8096 16.626 71.8096 17.6134C71.8096 18.6008 72.0454 19.3966 72.517 20.0008C72.9886 20.5903 73.6371 20.8851 74.4623 20.8851C75.0371 20.8851 75.5382 20.723 75.9655 20.3987C76.3929 20.0745 76.6656 19.6619 76.7835 19.1608H80.0109C79.8783 20.3103 79.333 21.3493 78.3751 22.2777C77.4319 23.2062 76.135 23.6704 74.4844 23.6704C72.8044 23.6704 71.4117 23.0957 70.3064 21.9462Z" fill="url(#paint5_linear_129_96)"/>
<path d="M92.536 18.5197H84.1358C84.2389 19.3155 84.5337 19.9271 85.02 20.3545C85.5063 20.7672 86.1474 20.9735 86.9432 20.9735C87.4443 20.9735 87.8938 20.8703 88.2917 20.664C88.7043 20.443 88.9991 20.1261 89.1759 19.7135H92.337C91.9981 20.8924 91.3275 21.8504 90.3254 22.5872C89.338 23.3094 88.1811 23.6704 86.8548 23.6704C85.1453 23.6704 83.7452 23.103 82.6547 21.9683C81.5641 20.8335 81.0188 19.3745 81.0188 17.5913C81.0188 15.867 81.5641 14.4301 82.6547 13.2806C83.7452 12.1311 85.1379 11.5564 86.8327 11.5564C88.5275 11.5564 89.9054 12.1311 90.9665 13.2806C92.0423 14.4154 92.5802 15.8523 92.5802 17.5913L92.536 18.5197ZM86.8106 14.0764C86.1032 14.0764 85.5211 14.2754 85.0642 14.6733C84.6073 15.0565 84.3126 15.587 84.18 16.2649H89.4412C89.3233 15.6018 89.0359 15.0712 88.579 14.6733C88.1222 14.2754 87.5327 14.0764 86.8106 14.0764Z" fill="url(#paint6_linear_129_96)"/>
<path d="M98.8127 23.6704C95.6589 23.6704 93.9862 22.3293 93.7947 19.6471H96.9779C97.0074 20.0745 97.1769 20.4356 97.4863 20.7303C97.8106 21.0103 98.2822 21.1503 98.9011 21.1503C99.4906 21.1503 99.9401 21.0545 100.25 20.863C100.559 20.6714 100.714 20.4135 100.714 20.0893C100.714 19.7356 100.493 19.4777 100.051 19.3155C99.6085 19.1387 99.0706 18.9987 98.4369 18.8955C97.8179 18.7924 97.1916 18.6524 96.5579 18.4755C95.9242 18.2987 95.3863 17.9524 94.9442 17.4365C94.502 16.9207 94.281 16.2355 94.281 15.3807C94.281 14.3049 94.7084 13.3985 95.5631 12.6617C96.4179 11.9248 97.5379 11.5564 98.9232 11.5564C100.5 11.5564 101.672 11.9543 102.438 12.7501C103.204 13.5459 103.617 14.4522 103.676 15.4691H100.647C100.618 15.0712 100.449 14.7396 100.139 14.4744C99.8443 14.2091 99.4317 14.0764 98.9011 14.0764C98.4001 14.0764 98.0095 14.187 97.7295 14.408C97.4495 14.6144 97.3095 14.8796 97.3095 15.2038C97.3095 15.5575 97.5306 15.8154 97.9727 15.9776C98.4148 16.1397 98.9453 16.2723 99.5643 16.3755C100.198 16.4639 100.824 16.5965 101.443 16.7734C102.077 16.9502 102.615 17.3039 103.057 17.8345C103.499 18.365 103.72 19.0724 103.72 19.9566C103.72 21.0324 103.278 21.924 102.394 22.6314C101.524 23.3241 100.331 23.6704 98.8127 23.6704Z" fill="url(#paint7_linear_129_96)"/>
<path d="M106.058 17.3658C106.373 16.7573 106.902 16.4531 107.647 16.4531C108.24 16.4531 108.702 16.655 109.032 17.0589C109.368 17.4628 109.536 17.9533 109.536 18.5303C109.536 19.1073 109.368 19.5977 109.032 20.0016C108.702 20.4055 108.24 20.6075 107.647 20.6075C106.897 20.6075 106.367 20.3033 106.058 19.6948V20.5131H105.688V14.6119H106.058V17.3658ZM106.451 17.2871C106.179 17.6176 106.042 18.032 106.042 18.5303C106.042 19.0286 106.179 19.443 106.451 19.7735C106.729 20.1039 107.107 20.2692 107.584 20.2692C108.067 20.2692 108.45 20.1039 108.733 19.7735C109.016 19.443 109.158 19.0286 109.158 18.5303C109.158 18.032 109.016 17.6176 108.733 17.2871C108.45 16.9566 108.067 16.7914 107.584 16.7914C107.107 16.7914 106.729 16.9566 106.451 17.2871Z" fill="url(#paint8_linear_129_96)"/>
<path d="M111 22.1497L111.692 20.5288L110.001 16.5475H110.41L111.897 20.1039L113.4 16.5475H113.793L111.393 22.1497H111Z" fill="url(#paint9_linear_129_96)"/>
<path d="M115.157 20.5131H113.953L116.054 14.9266H117.266L119.367 20.5131H118.131L117.793 19.5531H115.496L115.157 20.5131ZM116.652 16.3429H116.636L115.865 18.5224H117.423L116.652 16.3429Z" fill="url(#paint10_linear_129_96)"/>
<path d="M121.323 20.6075C120.2 20.6075 119.605 20.1302 119.537 19.1755H120.67C120.68 19.3276 120.74 19.4561 120.851 19.561C120.966 19.6607 121.134 19.7105 121.354 19.7105C121.564 19.7105 121.724 19.6764 121.834 19.6082C121.944 19.54 121.999 19.4482 121.999 19.3328C121.999 19.2069 121.921 19.1152 121.763 19.0575C121.606 18.9945 121.415 18.9447 121.189 18.908C120.969 18.8712 120.746 18.8214 120.52 18.7585C120.295 18.6955 120.103 18.5722 119.946 18.3887C119.788 18.2051 119.71 17.9611 119.71 17.6569C119.71 17.274 119.862 16.9514 120.166 16.6891C120.47 16.4268 120.869 16.2957 121.362 16.2957C121.923 16.2957 122.34 16.4373 122.613 16.7206C122.886 17.0038 123.033 17.3264 123.054 17.6884H121.976C121.965 17.5468 121.905 17.4287 121.795 17.3343C121.69 17.2399 121.543 17.1927 121.354 17.1927C121.176 17.1927 121.037 17.232 120.937 17.3107C120.838 17.3841 120.788 17.4786 120.788 17.594C120.788 17.7199 120.866 17.8116 121.024 17.8693C121.181 17.9271 121.37 17.9743 121.59 18.011C121.816 18.0424 122.039 18.0897 122.259 18.1526C122.485 18.2156 122.676 18.3414 122.833 18.5303C122.991 18.7191 123.069 18.9709 123.069 19.2856C123.069 19.6685 122.912 19.9859 122.597 20.2377C122.288 20.4842 121.863 20.6075 121.323 20.6075Z" fill="url(#paint11_linear_129_96)"/>
<path d="M125.18 20.6075C124.057 20.6075 123.462 20.1302 123.394 19.1755H124.527C124.537 19.3276 124.598 19.4561 124.708 19.561C124.823 19.6607 124.991 19.7105 125.211 19.7105C125.421 19.7105 125.581 19.6764 125.691 19.6082C125.802 19.54 125.857 19.4482 125.857 19.3328C125.857 19.2069 125.778 19.1152 125.621 19.0575C125.463 18.9945 125.272 18.9447 125.046 18.908C124.826 18.8712 124.603 18.8214 124.377 18.7585C124.152 18.6955 123.96 18.5722 123.803 18.3887C123.646 18.2051 123.567 17.9611 123.567 17.6569C123.567 17.274 123.719 16.9514 124.023 16.6891C124.328 16.4268 124.726 16.2957 125.219 16.2957C125.781 16.2957 126.198 16.4373 126.47 16.7206C126.743 17.0038 126.89 17.3264 126.911 17.6884H125.833C125.823 17.5468 125.762 17.4287 125.652 17.3343C125.547 17.2399 125.4 17.1927 125.211 17.1927C125.033 17.1927 124.894 17.232 124.794 17.3107C124.695 17.3841 124.645 17.4786 124.645 17.594C124.645 17.7199 124.724 17.8116 124.881 17.8693C125.038 17.9271 125.227 17.9743 125.448 18.011C125.673 18.0424 125.896 18.0897 126.116 18.1526C126.342 18.2156 126.533 18.3414 126.691 18.5303C126.848 18.7191 126.927 18.9709 126.927 19.2856C126.927 19.6685 126.769 19.9859 126.455 20.2377C126.145 20.4842 125.72 20.6075 125.18 20.6075Z" fill="url(#paint12_linear_129_96)"/>
<path d="M129.037 20.6075C127.915 20.6075 127.319 20.1302 127.251 19.1755H128.384C128.395 19.3276 128.455 19.4561 128.565 19.561C128.681 19.6607 128.848 19.7105 129.069 19.7105C129.279 19.7105 129.439 19.6764 129.549 19.6082C129.659 19.54 129.714 19.4482 129.714 19.3328C129.714 19.2069 129.635 19.1152 129.478 19.0575C129.321 18.9945 129.129 18.9447 128.904 18.908C128.683 18.8712 128.46 18.8214 128.235 18.7585C128.009 18.6955 127.818 18.5722 127.66 18.3887C127.503 18.2051 127.424 17.9611 127.424 17.6569C127.424 17.274 127.576 16.9514 127.881 16.6891C128.185 16.4268 128.584 16.2957 129.077 16.2957C129.638 16.2957 130.055 16.4373 130.328 16.7206C130.6 17.0038 130.747 17.3264 130.768 17.6884H129.69C129.68 17.5468 129.62 17.4287 129.509 17.3343C129.404 17.2399 129.258 17.1927 129.069 17.1927C128.89 17.1927 128.751 17.232 128.652 17.3107C128.552 17.3841 128.502 17.4786 128.502 17.594C128.502 17.7199 128.581 17.8116 128.738 17.8693C128.896 17.9271 129.084 17.9743 129.305 18.011C129.53 18.0424 129.753 18.0897 129.974 18.1526C130.199 18.2156 130.391 18.3414 130.548 18.5303C130.705 18.7191 130.784 18.9709 130.784 19.2856C130.784 19.6685 130.627 19.9859 130.312 20.2377C130.002 20.4842 129.578 20.6075 129.037 20.6075Z" fill="url(#paint13_linear_129_96)"/>
<path d="M134.104 18.7349V16.3901H135.221V20.5131H134.191V20.0095C133.976 20.4082 133.572 20.6075 132.979 20.6075C132.496 20.6075 132.124 20.4606 131.862 20.1669C131.605 19.8679 131.476 19.4666 131.476 18.963V16.3901H132.594V18.8371C132.594 19.3774 132.822 19.6476 133.278 19.6476C133.551 19.6476 133.755 19.5689 133.892 19.4115C134.033 19.2542 134.104 19.0286 134.104 18.7349Z" fill="url(#paint14_linear_129_96)"/>
<path d="M138.57 16.3587V17.4051C138.491 17.3894 138.418 17.3815 138.35 17.3815C138.019 17.3815 137.77 17.4681 137.602 17.6412C137.44 17.8143 137.358 18.087 137.358 18.4595V20.5131H136.241V16.3901H137.272V16.9252C137.508 16.5422 137.896 16.3508 138.436 16.3508L138.57 16.3587Z" fill="url(#paint15_linear_129_96)"/>
<path d="M142.839 18.7742H139.849C139.886 19.0575 139.991 19.2751 140.164 19.4273C140.337 19.5741 140.565 19.6476 140.849 19.6476C141.027 19.6476 141.187 19.6108 141.329 19.5374C141.475 19.4587 141.58 19.346 141.643 19.1991H142.768C142.648 19.6187 142.409 19.9597 142.052 20.2219C141.701 20.479 141.289 20.6075 140.817 20.6075C140.209 20.6075 139.71 20.4055 139.322 20.0016C138.934 19.5977 138.74 19.0784 138.74 18.4437C138.74 17.83 138.934 17.3186 139.322 16.9094C139.71 16.5003 140.206 16.2957 140.809 16.2957C141.413 16.2957 141.903 16.5003 142.281 16.9094C142.664 17.3133 142.855 17.8248 142.855 18.4437L142.839 18.7742ZM140.801 17.1927C140.55 17.1927 140.342 17.2635 140.18 17.4051C140.017 17.5415 139.912 17.7303 139.865 17.9716H141.738C141.696 17.7356 141.593 17.5468 141.431 17.4051C141.268 17.2635 141.058 17.1927 140.801 17.1927Z" fill="url(#paint16_linear_129_96)"/>
<path d="M146.466 16.8307V14.6119H147.583V20.5131H146.553V20.0095C146.28 20.4082 145.844 20.6075 145.246 20.6075C144.664 20.6075 144.203 20.4029 143.862 19.9938C143.521 19.5846 143.35 19.0706 143.35 18.4516C143.35 17.8326 143.521 17.3186 143.862 16.9094C144.203 16.5003 144.664 16.2957 145.246 16.2957C145.519 16.2957 145.761 16.3482 145.97 16.4531C146.185 16.5527 146.351 16.6786 146.466 16.8307ZM146.214 19.2935C146.403 19.0732 146.498 18.7926 146.498 18.4516C146.498 18.1106 146.403 17.83 146.214 17.6097C146.031 17.3894 145.787 17.2792 145.483 17.2792C145.178 17.2792 144.932 17.3894 144.743 17.6097C144.559 17.83 144.468 18.1106 144.468 18.4516C144.468 18.7926 144.559 19.0732 144.743 19.2935C144.932 19.5138 145.178 19.624 145.483 19.624C145.787 19.624 146.031 19.5138 146.214 19.2935Z" fill="url(#paint17_linear_129_96)"/>
<defs>
<linearGradient id="paint0_linear_129_96" x1="3.09301" y1="3.03" x2="29.0275" y2="29.5039" gradientUnits="userSpaceOnUse">
<stop stop-color="#FF5722"/>
<stop offset="0.11" stop-color="#FF4A23"/>
<stop offset="0.19" stop-color="#FF3E24"/>
<stop offset="0.27" stop-color="#FE3B2A"/>
<stop offset="0.38" stop-color="#FC333A"/>
<stop offset="0.5" stop-color="#F92454"/>
<stop offset="0.62" stop-color="#F41179"/>
<stop offset="1" stop-color="#FF5F89"/>
</linearGradient>
<linearGradient id="paint1_linear_129_96" x1="27.1737" y1="22.4066" x2="13.87" y2="9.10128" gradientUnits="userSpaceOnUse">
<stop stop-color="#FF0062"/>
<stop offset="0.546875"/>
</linearGradient>
<linearGradient id="paint2_linear_129_96" x1="47.027" y1="8.16052" x2="51.2116" y2="35.2905" gradientUnits="userSpaceOnUse">
<stop stop-color="#FF5722"/>
<stop offset="0.11" stop-color="#FF4A23"/>
<stop offset="0.19" stop-color="#FF3E24"/>
<stop offset="0.27" stop-color="#FE3B2A"/>
<stop offset="0.38" stop-color="#FC333A"/>
<stop offset="0.5" stop-color="#F92454"/>
<stop offset="0.62" stop-color="#F41179"/>
<stop offset="1" stop-color="#FF5F89"/>
</linearGradient>
<linearGradient id="paint3_linear_129_96" x1="47.027" y1="8.16052" x2="51.2116" y2="35.2905" gradientUnits="userSpaceOnUse">
<stop stop-color="#FF5722"/>
<stop offset="0.11" stop-color="#FF4A23"/>
<stop offset="0.19" stop-color="#FF3E24"/>
<stop offset="0.27" stop-color="#FE3B2A"/>
<stop offset="0.38" stop-color="#FC333A"/>
<stop offset="0.5" stop-color="#F92454"/>
<stop offset="0.62" stop-color="#F41179"/>
<stop offset="1" stop-color="#FF5F89"/>
</linearGradient>
<linearGradient id="paint4_linear_129_96" x1="47.027" y1="8.16052" x2="51.2116" y2="35.2905" gradientUnits="userSpaceOnUse">
<stop stop-color="#FF5722"/>
<stop offset="0.11" stop-color="#FF4A23"/>
<stop offset="0.19" stop-color="#FF3E24"/>
<stop offset="0.27" stop-color="#FE3B2A"/>
<stop offset="0.38" stop-color="#FC333A"/>
<stop offset="0.5" stop-color="#F92454"/>
<stop offset="0.62" stop-color="#F41179"/>
<stop offset="1" stop-color="#FF5F89"/>
</linearGradient>
<linearGradient id="paint5_linear_129_96" x1="47.027" y1="8.16052" x2="51.2116" y2="35.2905" gradientUnits="userSpaceOnUse">
<stop stop-color="#FF5722"/>
<stop offset="0.11" stop-color="#FF4A23"/>
<stop offset="0.19" stop-color="#FF3E24"/>
<stop offset="0.27" stop-color="#FE3B2A"/>
<stop offset="0.38" stop-color="#FC333A"/>
<stop offset="0.5" stop-color="#F92454"/>
<stop offset="0.62" stop-color="#F41179"/>
<stop offset="1" stop-color="#FF5F89"/>
</linearGradient>
<linearGradient id="paint6_linear_129_96" x1="47.027" y1="8.16052" x2="51.2116" y2="35.2905" gradientUnits="userSpaceOnUse">
<stop stop-color="#FF5722"/>
<stop offset="0.11" stop-color="#FF4A23"/>
<stop offset="0.19" stop-color="#FF3E24"/>
<stop offset="0.27" stop-color="#FE3B2A"/>
<stop offset="0.38" stop-color="#FC333A"/>
<stop offset="0.5" stop-color="#F92454"/>
<stop offset="0.62" stop-color="#F41179"/>
<stop offset="1" stop-color="#FF5F89"/>
</linearGradient>
<linearGradient id="paint7_linear_129_96" x1="47.027" y1="8.16052" x2="51.2116" y2="35.2905" gradientUnits="userSpaceOnUse">
<stop stop-color="#FF5722"/>
<stop offset="0.11" stop-color="#FF4A23"/>
<stop offset="0.19" stop-color="#FF3E24"/>
<stop offset="0.27" stop-color="#FE3B2A"/>
<stop offset="0.38" stop-color="#FC333A"/>
<stop offset="0.5" stop-color="#F92454"/>
<stop offset="0.62" stop-color="#F41179"/>
<stop offset="1" stop-color="#FF5F89"/>
</linearGradient>
<linearGradient id="paint8_linear_129_96" x1="47.027" y1="8.16052" x2="51.2116" y2="35.2905" gradientUnits="userSpaceOnUse">
<stop stop-color="#FF5722"/>
<stop offset="0.11" stop-color="#FF4A23"/>
<stop offset="0.19" stop-color="#FF3E24"/>
<stop offset="0.27" stop-color="#FE3B2A"/>
<stop offset="0.38" stop-color="#FC333A"/>
<stop offset="0.5" stop-color="#F92454"/>
<stop offset="0.62" stop-color="#F41179"/>
<stop offset="1" stop-color="#FF5F89"/>
</linearGradient>
<linearGradient id="paint9_linear_129_96" x1="47.027" y1="8.16052" x2="51.2116" y2="35.2905" gradientUnits="userSpaceOnUse">
<stop stop-color="#FF5722"/>
<stop offset="0.11" stop-color="#FF4A23"/>
<stop offset="0.19" stop-color="#FF3E24"/>
<stop offset="0.27" stop-color="#FE3B2A"/>
<stop offset="0.38" stop-color="#FC333A"/>
<stop offset="0.5" stop-color="#F92454"/>
<stop offset="0.62" stop-color="#F41179"/>
<stop offset="1" stop-color="#FF5F89"/>
</linearGradient>
<linearGradient id="paint10_linear_129_96" x1="47.027" y1="8.16052" x2="51.2116" y2="35.2905" gradientUnits="userSpaceOnUse">
<stop stop-color="#FF5722"/>
<stop offset="0.11" stop-color="#FF4A23"/>
<stop offset="0.19" stop-color="#FF3E24"/>
<stop offset="0.27" stop-color="#FE3B2A"/>
<stop offset="0.38" stop-color="#FC333A"/>
<stop offset="0.5" stop-color="#F92454"/>
<stop offset="0.62" stop-color="#F41179"/>
<stop offset="1" stop-color="#FF5F89"/>
</linearGradient>
<linearGradient id="paint11_linear_129_96" x1="47.027" y1="8.16052" x2="51.2116" y2="35.2905" gradientUnits="userSpaceOnUse">
<stop stop-color="#FF5722"/>
<stop offset="0.11" stop-color="#FF4A23"/>
<stop offset="0.19" stop-color="#FF3E24"/>
<stop offset="0.27" stop-color="#FE3B2A"/>
<stop offset="0.38" stop-color="#FC333A"/>
<stop offset="0.5" stop-color="#F92454"/>
<stop offset="0.62" stop-color="#F41179"/>
<stop offset="1" stop-color="#FF5F89"/>
</linearGradient>
<linearGradient id="paint12_linear_129_96" x1="47.027" y1="8.16052" x2="51.2116" y2="35.2905" gradientUnits="userSpaceOnUse">
<stop stop-color="#FF5722"/>
<stop offset="0.11" stop-color="#FF4A23"/>
<stop offset="0.19" stop-color="#FF3E24"/>
<stop offset="0.27" stop-color="#FE3B2A"/>
<stop offset="0.38" stop-color="#FC333A"/>
<stop offset="0.5" stop-color="#F92454"/>
<stop offset="0.62" stop-color="#F41179"/>
<stop offset="1" stop-color="#FF5F89"/>
</linearGradient>
<linearGradient id="paint13_linear_129_96" x1="47.027" y1="8.16052" x2="51.2116" y2="35.2905" gradientUnits="userSpaceOnUse">
<stop stop-color="#FF5722"/>
<stop offset="0.11" stop-color="#FF4A23"/>
<stop offset="0.19" stop-color="#FF3E24"/>
<stop offset="0.27" stop-color="#FE3B2A"/>
<stop offset="0.38" stop-color="#FC333A"/>
<stop offset="0.5" stop-color="#F92454"/>
<stop offset="0.62" stop-color="#F41179"/>
<stop offset="1" stop-color="#FF5F89"/>
</linearGradient>
<linearGradient id="paint14_linear_129_96" x1="47.027" y1="8.16052" x2="51.2116" y2="35.2905" gradientUnits="userSpaceOnUse">
<stop stop-color="#FF5722"/>
<stop offset="0.11" stop-color="#FF4A23"/>
<stop offset="0.19" stop-color="#FF3E24"/>
<stop offset="0.27" stop-color="#FE3B2A"/>
<stop offset="0.38" stop-color="#FC333A"/>
<stop offset="0.5" stop-color="#F92454"/>
<stop offset="0.62" stop-color="#F41179"/>
<stop offset="1" stop-color="#FF5F89"/>
</linearGradient>
<linearGradient id="paint15_linear_129_96" x1="47.027" y1="8.16052" x2="51.2116" y2="35.2905" gradientUnits="userSpaceOnUse">
<stop stop-color="#FF5722"/>
<stop offset="0.11" stop-color="#FF4A23"/>
<stop offset="0.19" stop-color="#FF3E24"/>
<stop offset="0.27" stop-color="#FE3B2A"/>
<stop offset="0.38" stop-color="#FC333A"/>
<stop offset="0.5" stop-color="#F92454"/>
<stop offset="0.62" stop-color="#F41179"/>
<stop offset="1" stop-color="#FF5F89"/>
</linearGradient>
<linearGradient id="paint16_linear_129_96" x1="47.027" y1="8.16052" x2="51.2116" y2="35.2905" gradientUnits="userSpaceOnUse">
<stop stop-color="#FF5722"/>
<stop offset="0.11" stop-color="#FF4A23"/>
<stop offset="0.19" stop-color="#FF3E24"/>
<stop offset="0.27" stop-color="#FE3B2A"/>
<stop offset="0.38" stop-color="#FC333A"/>
<stop offset="0.5" stop-color="#F92454"/>
<stop offset="0.62" stop-color="#F41179"/>
<stop offset="1" stop-color="#FF5F89"/>
</linearGradient>
<linearGradient id="paint17_linear_129_96" x1="47.027" y1="8.16052" x2="51.2116" y2="35.2905" gradientUnits="userSpaceOnUse">
<stop stop-color="#FF5722"/>
<stop offset="0.11" stop-color="#FF4A23"/>
<stop offset="0.19" stop-color="#FF3E24"/>
<stop offset="0.27" stop-color="#FE3B2A"/>
<stop offset="0.38" stop-color="#FC333A"/>
<stop offset="0.5" stop-color="#F92454"/>
<stop offset="0.62" stop-color="#F41179"/>
<stop offset="1" stop-color="#FF5F89"/>
</linearGradient>
</defs>
</svg>
